<svg xmlns="http://www.w3.org/2000/svg" enable-background="new 0 0 633 15" version="1.1" viewBox="0 0 633 15" x="0px" xml:space="preserve" y="0px" style="fill: rgb(201, 109, 90);" original_string_length="3001">
    <g id="__id182_sbydy97th">
        <path d="m611.8 15c-5.6 0-8.5-3.5-11-6.6-2.4-2.9-4.5-5.5-8.7-5.5s-6.3 2.5-8.7 5.5c-2.5 3.1-5.4 6.6-11 6.6s-8.5-3.5-11-6.6c-2.4-2.9-4.5-5.4-8.7-5.4s-6.3 2.5-8.7 5.5c-2.5 3.1-5.4 6.6-11 6.6s-8.5-3.5-11-6.6c-2.4-2.9-4.5-5.5-8.7-5.5s-6.3 2.5-8.7 5.5c-2.5 3.1-5.4 6.6-11 6.6s-8.5-3.5-11-6.6c-2.3-3-4.4-5.5-8.6-5.5s-6.3 2.5-8.7 5.5c-2.5 3.1-5.4 6.6-11 6.6s-8.5-3.5-11-6.6c-2.4-2.9-4.5-5.5-8.7-5.5s-6.3 2.5-8.7 5.5c-2.5 3.1-5.4 6.6-11 6.6s-8.5-3.5-11-6.6c-2.4-2.9-4.5-5.5-8.7-5.5s-6.3 2.5-8.7 5.5c-2.5 3.1-5.4 6.6-11 6.6s-8.5-3.5-11-6.6c-2.4-2.9-4.5-5.5-8.7-5.5s-6.3 2.5-8.7 5.5c-2.5 3.1-5.4 6.6-11 6.6s-8.5-3.5-11-6.6c-2.4-2.9-4.5-5.5-8.7-5.5s-6.3 2.5-8.7 5.5c-2.5 3.1-5.4 6.6-11 6.6s-8.5-3.5-11-6.6c-2.4-2.9-4.5-5.5-8.7-5.5s-6.3 2.5-8.7 5.5c-2.5 3.1-5.4 6.6-11 6.6s-8.5-3.5-11-6.6c-2.3-3-4.4-5.5-8.6-5.5s-6.3 2.5-8.7 5.5c-2.5 3.1-5.4 6.6-11 6.6s-8.5-3.5-11-6.6c-2.4-2.9-4.5-5.5-8.7-5.5s-6.3 2.5-8.7 5.5c-2.5 3.1-5.4 6.6-11 6.6s-8.5-3.5-11-6.6c-2.3-3-4.4-5.5-8.6-5.5s-6.3 2.5-8.7 5.5c-2.5 3.1-5.4 6.6-11 6.6s-8.5-3.5-11-6.6c-2.4-2.9-4.5-5.5-8.7-5.5s-6.3 2.5-8.7 5.5c-2.5 3.1-5.4 6.6-11 6.6s-8.5-3.5-11-6.6c-2.4-3-4.5-5.5-8.7-5.5s-6.2 2.5-8.6 5.5c-2.5 3.1-5.4 6.6-11 6.6s-8.5-3.5-11-6.6c-2.4-3-4.5-5.5-8.7-5.5s-6.3 2.5-8.7 5.5c-2.5 3.1-5.4 6.6-11 6.6s-8.5-3.5-11-6.6c-2.4-3-4.5-5.5-8.7-5.5-0.8 0-1.5-0.7-1.5-1.5s0.7-1.5 1.5-1.5c5.6 0 8.5 3.5 11 6.6 2.4 2.9 4.5 5.4 8.7 5.4s6.3-2.5 8.7-5.5c2.5-3.1 5.4-6.6 11-6.6s8.5 3.5 11 6.6c2.4 2.9 4.5 5.5 8.7 5.5s6.3-2.5 8.7-5.5c2.5-3.1 5.4-6.6 11-6.6s8.5 3.5 11 6.6c2.4 2.9 4.5 5.5 8.7 5.5s6.3-2.5 8.7-5.5c2.5-3.1 5.4-6.6 11-6.6s8.5 3.5 11 6.6c2.4 2.9 4.5 5.5 8.7 5.5s6.3-2.5 8.7-5.5c2.5-3.1 5.4-6.6 11-6.6s8.5 3.5 11 6.6c2.4 2.9 4.5 5.5 8.7 5.5s6.3-2.5 8.7-5.5c2.5-3.1 5.4-6.6 11-6.6s8.5 3.5 11 6.6c2.4 2.9 4.5 5.5 8.7 5.5s6.3-2.5 8.7-5.5c2.5-3.1 5.4-6.6 11-6.6s8.5 3.5 11 6.6c2.4 2.9 4.5 5.5 8.7 5.5s6.3-2.5 8.7-5.5c2.5-3.1 5.4-6.6 11-6.6s8.5 3.5 11 6.6c2.4 2.9 4.5 5.5 8.7 5.5s6.3-2.5 8.7-5.5c2.5-3.1 5.4-6.6 11-6.6s8.5 3.5 11 6.6c2.4 2.9 4.5 5.5 8.7 5.5s6.3-2.5 8.7-5.5c2.5-3.1 5.4-6.6 11-6.6s8.5 3.5 11 6.6c2.4 2.9 4.5 5.5 8.7 5.5s6.3-2.5 8.7-5.5c2.5-3.1 5.4-6.6 11-6.6s8.5 3.5 11 6.6c2.4 2.9 4.5 5.5 8.7 5.5s6.3-2.5 8.7-5.5c2.5-3.1 5.4-6.6 11-6.6s8.5 3.5 11 6.6c2.4 2.9 4.5 5.5 8.7 5.5s6.3-2.5 8.7-5.5c2.5-3.1 5.4-6.6 11-6.6s8.5 3.5 11 6.6c2.4 2.9 4.5 5.5 8.7 5.5s6.3-2.5 8.7-5.5c2.5-3.1 5.4-6.6 11-6.6s8.5 3.5 11 6.6c2.4 2.9 4.5 5.5 8.7 5.5s6.3-2.5 8.7-5.5c2.5-3.1 5.4-6.6 11-6.6s8.5 3.5 11 6.6c2.4 2.9 4.5 5.5 8.7 5.5s6.3-2.5 8.7-5.5c2.5-3.1 5.4-6.6 11-6.6s8.5 3.5 11 6.6c2.4 2.9 4.5 5.5 8.7 5.5s6.3-2.5 8.7-5.5c2.5-3.1 5.4-6.6 11-6.6 0.8 0 1.5 0.7 1.5 1.5s-1.1 1.6-1.9 1.6c-4.2 0-6.3 2.5-8.7 5.5-2.5 3-5.4 6.5-11 6.5z" style="fill: inherit;"/>
    </g>
</svg>